<svg t="1564621662953" class="icon" viewBox="0 0 1024 1024" version="1.1" xmlns="http://www.w3.org/2000/svg" p-id="5432" height="200" width="200"><path d="M538.3671875 301.0625L353.796875 301.0625l0 158.203125c0 0 140.80078125 0 184.5703125 0S617.46875 423.93359375 617.46875 380.1640625C617.46875 336.39453125 582.13671875 301.0625 538.3671875 301.0625zM485.6328125 90.125C267.3125 90.125 90.125 267.3125 90.125 485.6328125 90.125 703.953125 267.3125 881.140625 485.6328125 881.140625c218.3203125 0 395.5078125-177.1875 395.5078125-395.5078125C881.140625 267.3125 703.953125 90.125 485.6328125 90.125zM661.765625 681.27734375c7.3828125 12.65625 1.0546875 28.4765625-11.07421875 35.859375-12.65625 7.3828125-32.16796875 3.1640625-39.55078125-9.4921875l-105.46875-182.4609375C503.03515625 520.96484375 503.03515625 516.21875 503.5625 512 434.48046875 512 353.796875 512 353.796875 512l0 184.5703125C353.796875 711.3359375 342.1953125 722.9375 327.4296875 722.9375 312.6640625 722.9375 301.0625 711.3359375 301.0625 696.5703125l0-421.875C301.0625 259.9296875 312.6640625 248.328125 327.4296875 248.328125c0 0 157.67578125 0 210.9375 0C611.140625 248.328125 670.203125 307.390625 670.203125 380.1640625c0 64.3359375-46.40625 118.125-107.578125 129.19921875L661.765625 681.27734375z" p-id="5433" fill="#ffffff"></path></svg>