<svg t="1564621924183" class="icon" viewBox="0 0 1024 1024" version="1.1" xmlns="http://www.w3.org/2000/svg" p-id="9625" width="200" height="200"><path d="M512 128c-212.096 0-384 171.904-384 384s171.904 384 384 384 384-171.904 384-384-171.904-384-384-384z m-100.736 237.44h201.344c6.912 0 12.416 5.632 12.416 12.416 0 6.912-5.632 12.416-12.416 12.416H411.264c-6.912 0-12.416-5.632-12.416-12.416-0.128-6.784 5.504-12.416 12.416-12.416z m174.592 64.384c0 6.912-5.632 12.416-12.416 12.416h-123.008c-6.912 0-12.416-5.632-12.416-12.416s5.632-12.416 12.416-12.416H573.44c6.784 0 12.416 5.632 12.416 12.416zM612.48 660.48H411.264c-6.912 0-12.416-5.632-12.416-12.416s5.632-12.416 12.416-12.416h201.344c6.912 0 12.416 5.632 12.416 12.416s-5.632 12.416-12.544 12.416z m-174.592-64.384c0-6.912 5.632-12.416 12.416-12.416h123.008c6.912 0 12.416 5.632 12.416 12.416s-5.632 12.416-12.416 12.416h-123.008c-6.784 0.128-12.416-5.504-12.416-12.416zM704 691.2c0 7.296-0.512 14.464-1.28 21.504 0 0.128 0.128 0.256 0.128 0.384 0 0.896-0.384 1.792-0.512 2.688-1.28 5.76-6.144 10.24-12.288 10.24-7.04 0-12.8-5.76-12.8-12.8 0-0.896 0.384-1.536 0.512-2.432h-0.128c0.64-6.144 1.024-12.288 1.024-18.56 0-92.16-74.496-166.912-166.4-167.424h-1.152c-92.416 0-167.424 75.008-167.424 167.552 0 7.552 0.64 14.976 1.664 22.4h-0.256c0-0.128 0.128-0.384 0.128-0.512 0 6.528-5.376 11.904-11.904 11.904-5.248 0-9.472-3.328-11.136-8.064-0.384-1.28-0.768-2.56-0.768-3.84 0-0.256 0.128-0.384 0.128-0.512-0.896-7.296-1.408-14.72-1.408-22.272 0-81.92 51.456-151.68 123.648-179.2-72.192-27.52-123.648-97.28-123.648-179.2 0-7.552 0.512-14.976 1.408-22.272 0-0.128-0.128-0.384-0.128-0.512 0-1.408 0.384-2.688 0.768-3.84 1.664-4.608 5.888-8.064 11.136-8.064 6.528 0 11.904 5.376 11.904 11.904 0-0.128-0.128-0.384-0.128-0.512h0.256c-1.024 7.296-1.664 14.72-1.664 22.4 0 92.416 74.88 167.424 167.424 167.552h1.152c92.032-0.512 166.4-75.264 166.4-167.424 0-6.272-0.384-12.416-1.024-18.56h0.128c-0.128-0.768-0.512-1.536-0.512-2.432 0-7.04 5.76-12.8 12.8-12.8 6.144 0 11.008 4.352 12.288 10.24 0.128 0.896 0.512 1.664 0.512 2.688 0 0.128-0.128 0.256-0.128 0.384 0.768 7.04 1.28 14.208 1.28 21.504 0 81.92-51.456 151.68-123.648 179.2C652.544 539.52 704 609.28 704 691.2z" fill="#ffffff" p-id="9626"></path></svg>