<svg t="1564621838040" class="icon" viewBox="0 0 1100 1024" version="1.1" xmlns="http://www.w3.org/2000/svg" p-id="8749" width="200" height="200"><path d="M1024.948342 794.795099v-90.018232s-60.353014-10.228917-60.353014-15.340762c0-5.117072-5.114981-10.228917-5.114982-15.345989 5.114981-15.340761 39.894135-39.888907 39.894135-39.888907l-70.580885-90.018232s-45.007025 34.778108-55.235942 39.89518c-5.116027 0-10.227871-5.117072-15.344944-5.117072-5.11289 0-20.457834-60.351969-20.457833-60.351969h-90.013005s-10.227871 55.239079-25.574906 60.350923c-5.114981 0-10.227871 5.118118-15.344943 5.118118-10.228917-5.117072-55.233851-39.895181-55.233851-39.89518l-70.580886 90.017186s34.776017 34.779154 34.776017 45.007025c0 5.11289-5.110799 5.11289-5.110799 10.228917-15.345989 5.11289-55.234896 15.340761-55.234896 15.340762v90.018232s50.117824 10.227871 60.346741 20.456788c0 5.117072 5.117072 10.228917 5.117072 15.344944-10.228917 15.341807-39.895181 34.778108-39.89518 34.778108l70.581931 90.013004s55.233851-34.777063 65.463813-39.888907c5.116027 0 10.233099 5.111844 15.344944 5.111845 10.228917 5.117072 15.344944 55.233851 15.344943 55.23385h90.01405s5.116027-50.116778 10.228917-55.23385c5.116027-5.11289 15.344944-5.11289 20.456788-5.11289 10.227871 5.11289 45.010162 39.888907 45.010162 39.888907l90.01405-90.011959s-34.778108-25.57386-45.007025-34.778108c5.11289-5.116027 5.11289-10.227871 5.11289-15.344944 6.136514-10.228917 61.377683-20.456788 61.377683-20.456788z m-231.180003 65.463813c-65.462768 0-115.585819-50.118869-115.58582-115.587911 0-65.463813 50.123052-115.586865 115.58582-115.586864 65.469041 0 115.593138 50.123052 115.593138 115.586864 0 65.469041-55.240124 115.58791-115.593138 115.587911z m0 0" p-id="8750" fill="#ffffff"></path><path d="M502.24264 723.193727c0-145.252083 120.704983-265.958111 265.95602-265.958112 15.341807 0 34.779154 0 50.125143 5.118118V231.17373c0-25.568633-20.463062-39.888907-39.89518-39.888907H612.718706V65.463813c0-34.777063-5.117072-65.463813-39.89518-65.463813H151.389642c-34.776017 0-65.467995 29.665218-65.467995 65.463813v672.050188h-65.463813C10.227871 737.514001 0 747.741872 0 757.970789v84.90116c0 10.228917 10.228917 20.457834 20.456788 20.457834h521.679987c-24.548146-38.869466-39.894135-84.90116-39.894135-140.136056z m150.370201-340.629309c0-10.227871 10.227871-20.457834 20.456788-20.457834h39.889953c10.234145 0 20.462016 10.229962 20.462016 20.457834v39.894135c0 10.228917-10.227871 20.457834-20.462016 20.457833h-39.888907c-10.229962 0-20.457834-10.228917-20.457834-20.457833zM376.426858 191.284823c0-25.574906 20.457834-39.895181 39.895181-39.895181h39.894135c25.569678 0 39.888907 20.457834 39.888907 39.895181v39.888907c0 25.574906-20.456788 39.895181-39.888907 39.89518h-39.894135c-25.574906 0-39.895181-20.457834-39.895181-39.89518z m0 210.715896c0-25.57386 20.457834-39.894135 39.895181-39.894135h39.894135c25.569678 0 39.888907 20.457834 39.888907 39.89518v39.888907c0 25.574906-20.456788 39.895181-39.888907 39.895181h-39.894135c-25.574906 0-39.895181-20.457834-39.895181-39.895181z m-59.326254 251.631563c0 25.574906-20.457834 39.895181-39.89518 39.895181h-39.894135c-25.569678 0-39.888907-20.457834-39.888907-39.895181v-39.894135c0-25.569678 20.456788-39.888907 39.888907-39.888907h39.894135c25.574906 0 39.895181 20.456788 39.89518 39.888907z m0-205.604051c0 25.574906-20.457834 39.894135-39.89518 39.894135h-39.894135c-25.569678 0-39.888907-20.456788-39.888907-39.894135v-39.888907c0-25.574906 20.456788-39.895181 39.888907-39.895181h39.894135c25.574906 0 39.895181 20.456788 39.89518 39.894135z m0-210.716942c0 25.574906-20.457834 39.894135-39.89518 39.894135h-39.894135c-25.569678 0-39.888907-20.456788-39.888907-39.894135v-39.888907c0-25.574906 20.456788-39.895181 39.888907-39.895181h39.894135c25.574906 0 39.895181 20.456788 39.89518 39.894135z m145.252083 461.328018h-39.894134c-25.574906 0-39.894135-20.456788-39.894135-39.888907v-39.89518c0-25.574906 20.456788-39.894135 39.894135-39.894135h39.894134c25.569678 0 39.889953 20.456788 39.889953 39.894135v39.894135c0 19.433165-15.339716 39.889953-39.888907 39.889952z m0 0" p-id="8751" fill="#ffffff"></path></svg>